<svg id="Layer_1" data-name="Layer 1" xmlns="http://www.w3.org/2000/svg" viewBox="0 0 619.5 600.61"><defs><style>.cls-1{fill:#576cb3;}</style></defs><title>Monogram colour(correct)</title><path class="cls-1" d="M904.4,444.31H866.08q.66-9.29.65-18.73,0-10.06-.73-20h38.45q.57,9.39.57,18.91Q905,434.5,904.4,444.31Z" transform="translate(-285.53 -120.64)"/><path class="cls-1" d="M866.08,444.31H904.4c-8.28,131.34-98.42,240.46-220,276.94l6-43.17C787.74,642.4,858.67,552.09,866.08,444.31Z" transform="translate(-285.53 -120.64)"/><path class="cls-1" d="M696.44,131.67c115.71,40,200.35,146.58,208,273.94H866c-8-109.68-81.91-201.09-182.26-234.88Z" transform="translate(-285.53 -120.64)"/><path class="cls-1" d="M690.48,129.68l.17.06q2.91.94,5.79,1.93l-12.7,39.06q-5.84-2-11.8-3.68l-.3-.1,12.77-39.24Z" transform="translate(-285.53 -120.64)"/><path class="cls-1" d="M683.74,170.73,607.29,405.61H594L671.64,167l.3.1Q677.9,168.76,683.74,170.73Z" transform="translate(-285.53 -120.64)"/><path class="cls-1" d="M607.29,405.61H866q.72,9.9.73,20,0,9.45-.65,18.73H594.7Z" transform="translate(-285.53 -120.64)"/><polygon class="cls-1" points="321.76 284.97 309.18 323.67 295.85 323.67 308.44 284.97 321.76 284.97"/><path class="cls-1" d="M505.3,678.08l76.08-233.77H594.7l-77.46,238-.35-.11q-5.89-1.8-11.68-3.85h0Z" transform="translate(-285.53 -120.64)"/><path class="cls-1" d="M517.24,682.32l-12.53,38.5q-2.7-.83-5.37-1.69l-.2-.07q-3.24-1-6.47-2.19l12.54-38.51q5.78,2.05,11.68,3.85Z" transform="translate(-285.53 -120.64)"/><path class="cls-1" d="M505.21,678.35l.09-.27Z" transform="translate(-285.53 -120.64)"/><path class="cls-1" d="M285.53,424.52c0-150.43,107.23-275.81,249.43-303.88l.12,0-13.85,45.75,0,0C408.73,198.59,326.41,302.15,326.41,425c0,116.89,74.6,216.37,178.8,253.4h0l-12.54,38.51C372,674.53,285.53,559.63,285.53,424.52Z" transform="translate(-285.53 -120.64)"/></svg>