<svg xmlns="http://www.w3.org/2000/svg" viewBox="0 0 592.44 592.44"><defs><style>.cls-1{fill:#566eb5;}.cls-2{fill:#fff;}.cls-3{fill:none;stroke:#566eb5;stroke-miterlimit:10;stroke-width:10px;}</style></defs><title>Asset 1</title><g id="Layer_2" data-name="Layer 2"><g id="Layer_1-2" data-name="Layer 1"><rect class="cls-1" width="592.44" height="592.44" rx="12" ry="12"/><path class="cls-2" d="M484.74,114,296.22,296.22,107.71,114a12,12,0,0,1,11-7.24h355A12,12,0,0,1,484.74,114Z"/><path class="cls-2" d="M118.71,485.73a12,12,0,0,1-12-12v-355a11.83,11.83,0,0,1,1-4.76L296.22,296.22,484.74,114a11.83,11.83,0,0,1,1,4.76v355a12,12,0,0,1-12,12Z"/><path class="cls-3" d="M484.74,114a11.83,11.83,0,0,1,1,4.76v355a12,12,0,0,1-12,12h-355a12,12,0,0,1-12-12v-355a11.83,11.83,0,0,1,1-4.76,12,12,0,0,1,11-7.24h355A12,12,0,0,1,484.74,114Z"/><polyline class="cls-3" points="106.71 112.99 107.7 113.95 296.22 296.22 484.74 113.95 485.74 112.99"/></g></g></svg>