<svg id="Layer_1" data-name="Layer 1" xmlns="http://www.w3.org/2000/svg" viewBox="0 0 605.96 605.96"><defs><style>.cls-1{fill:#0c1a39;}.cls-2{fill:none;stroke:#566eb5;stroke-miterlimit:10;stroke-width:10px;}</style></defs><title>mail 2 (hover state)</title><path class="cls-1" d="M893.26,135v572a12,12,0,0,1-12,12h-572a12,12,0,0,1-12-12V135a11.61,11.61,0,0,1,.16-2L595.28,420.94,893.1,133A12.74,12.74,0,0,1,893.26,135Z" transform="translate(-292.3 -117.97)"/><path class="cls-1" d="M893.1,133,595.28,420.94,297.46,133a12,12,0,0,1,11.83-10h572A12.05,12.05,0,0,1,893.1,133Z" transform="translate(-292.3 -117.97)"/><path class="cls-2" d="M893.1,133a12.74,12.74,0,0,1,.16,2v572a12,12,0,0,1-12,12h-572a12,12,0,0,1-12-12V135a11.61,11.61,0,0,1,.16-2,12,12,0,0,1,11.83-10h572A12.05,12.05,0,0,1,893.1,133Z" transform="translate(-292.3 -117.97)"/><polyline class="cls-2" points="5 14.87 5.17 15.03 302.98 302.97 600.8 15.03 600.97 14.87"/></svg>