<svg xmlns="http://www.w3.org/2000/svg" viewBox="0 0 592.44 592.44"><defs><style>.cls-1{fill:#566eb5;}.cls-2{fill:#fff;}</style></defs><title>Asset 1</title><g id="Layer_2" data-name="Layer 2"><g id="Layer_1-2" data-name="Layer 1"><rect class="cls-1" width="592.44" height="592.44" rx="12" ry="12"/><path class="cls-2" d="M240.28,436.47c-.05-2-.12-5.14-.17-7.21-.17-7.39-.18-8-.17-8.87,0-4.71.28-4.54.34-10.05v-12.4c.16-.94.42-1.81,0-2.18s-1.74.21-2.35.51c-.84.4-3.13.66-7.7,1.17-1.14.13-4.53.49-9.72.67a90.57,90.57,0,0,1-11.39,0,43.37,43.37,0,0,1-12.22-2.35,84.17,84.17,0,0,1-8.88-4.18c-3.47-1.76-5.21-2.62-6-3.18-3-2.1-5-4.7-8.67-9.81-3.2-4.4-4.79-6.6-5.67-8.62-1.76-4.08-1.53-6.16-4.11-10.6-.28-.5-1.09-1.73-2.71-4.19-2-3-3-4.5-4.27-6.33a44.11,44.11,0,0,0-4.35-5.5,62.9,62.9,0,0,0-5.59-4.52c-4.1-3.19-6.16-4.79-6.24-4.84a22.67,22.67,0,0,1-4.44-3.45,3.89,3.89,0,0,1-1.39-2.55,3.34,3.34,0,0,1,.82-2.13c1-1.33,2.55-1.66,4.27-2.06a19.5,19.5,0,0,1,3.37-.41,25.83,25.83,0,0,1,3.78,0,24.18,24.18,0,0,1,5.42,1.15,37.15,37.15,0,0,1,6.41,2.47,36.31,36.31,0,0,1,7.14,4.76,46.71,46.71,0,0,1,7.31,7.56c1.54,2,1.19,1.87,4.27,6.16,1.09,1.5,2.49,3.4,4.19,5.58,1.86,2.38,2.78,3.57,3.95,4.85a38.28,38.28,0,0,0,5.75,5.42A38.46,38.46,0,0,0,206,367.91a42.23,42.23,0,0,0,8.54.66,68.4,68.4,0,0,0,7.81-.33,54.32,54.32,0,0,0,7-1.15c4.57-1.08,4.56-1.8,7.47-2.38a7.21,7.21,0,0,0,2.47-1,4.3,4.3,0,0,0,1.56-1.56,4.16,4.16,0,0,0,.41-1.39,28,28,0,0,0,.33-3.21,15.93,15.93,0,0,1,1.23-4.27,49.68,49.68,0,0,1,2.38-5.42c.72-1.46,1.27-2.43,2.3-4.27a48.66,48.66,0,0,1,2.88-4.77,18,18,0,0,1,2.46-3c1.09-1,1.79-1.28,1.73-1.72-.11-.7-2-1-4.28-1.23-3.69-.46-6.19-.73-8.21-1-1.14-.15-2.65-.42-5.67-1-4.62-.86-6.93-1.29-9.11-1.89-.38-.11-2.64-.87-7.15-2.39-3.17-1.06-4.68-1.58-6.49-2.21-3-1.05-4.48-1.58-5.59-2.06-1.62-.7-2.32-1.11-6.24-3.2-5.6-3-4.9-2.53-5.75-3a63.51,63.51,0,0,1-8.21-6c-.72-.59-2.46-2-4.6-4a63,63,0,0,1-4.77-4.76c-.65-.75-1-1.16-4.43-5.92-3.64-5-3.87-5.33-4.27-6a74.38,74.38,0,0,1-3.37-6.73c-1.79-3.82-2.69-5.72-3.45-7.8-.84-2.3-1.3-4-2.22-7.48-.68-2.57-1.49-5.62-2.22-9.53-.23-1.26-.59-4.06-1.31-9.61a123.55,123.55,0,0,1-1.32-12.73c0-.43,0-1.77-.08-4.44-.07-4.24-.11-6.39-.08-7.55a61.11,61.11,0,0,1,.58-7.56,67.83,67.83,0,0,1,1.88-8.71c.27-1,.8-2.92,1.73-5.75a96.7,96.7,0,0,1,4.68-12.32c2.22-4.66,4.16-8.76,7-11.74,1.93-2,3.24-4.7,5.51-6.33a1.44,1.44,0,0,0,.57-.74,2.25,2.25,0,0,0-.57-1.8c-.78-1.13-1-2.56-1.65-3.78-.32-.64-.89-2-1.56-10-.34-4.15-.51-6.22-.49-8.79a73.15,73.15,0,0,1,.49-7.72c.35-3.1.77-5.24,1.48-8.88a64.15,64.15,0,0,1,2.14-9.11c1.11-3.1,2.17-4.52,2.3-5.92a2.11,2.11,0,0,1,.57-1.39,2.16,2.16,0,0,1,1-.5,6.57,6.57,0,0,1,2.13-.24c1.71,0,2.3.08,2.3.08,6.4.67,6.72.61,8.46,1,1.28.28,2.55.68,5.1,1.48,1.26.4,3.71,1.18,6.49,2.22a94.71,94.71,0,0,1,11.66,5.26c4.26,2.29,4.68,3,10.27,6.08a47.53,47.53,0,0,1,6.57,3.45,31.25,31.25,0,0,1,2.79,2.05c.67.63,1,1,1.56,1.23a3.67,3.67,0,0,0,2.8-.49c4-2.13,8.87-2,13.3-3s7.93-1.56,11.09-2.05c2.35-.37,8.27-1.25,16-1.81,3.36-.24,6.89-.49,11.66-.49,4.21,0,7.27.2,10.6.41,6.87.44,12.4,1.11,15.77,1.56,5.52.74,9.52,1.49,13,2.14,1.55.29,4.35.93,9.94,2.21,2.89.67,3.61.86,4.35,1.32a2.2,2.2,0,0,0,.82.33,3.4,3.4,0,0,0,2.55-1.07,92.31,92.31,0,0,1,7.56-5.42c.67-.46.68-.42,5.5-2.88,7.52-3.83,6.51-3.42,8.62-4.43,4.43-2.12,7.84-3.4,11.67-4.85a65.61,65.61,0,0,1,6.65-2.22c1.69-.45,2.89-.68,5.26-1.15a41.09,41.09,0,0,1,5.42-.74,8.81,8.81,0,0,1,3.29.25,5.23,5.23,0,0,1,2.3,1.15,4.59,4.59,0,0,1,1.15,2,59.62,59.62,0,0,1,1.72,6.49c.29,1.65.8,3.68,1.81,7.72a58.19,58.19,0,0,1,1.31,5.67,48.74,48.74,0,0,1,.49,4.85c.14,2,.15,3.41.17,5.5,0,2.47,0,3.82-.08,5.75-.06.9-.15,2.32-.41,4.19-.08.57-.35,2.36-.91,4.68a24.33,24.33,0,0,1-1.23,4.27c-.15.32-.63,1.35-1.15,2.79a5.3,5.3,0,0,0-.41,1.4c0,1.07.73,1.81,2.05,3.29.76.83,1.46,1.71,2.22,2.54a37.56,37.56,0,0,1,4.44,6.16,58.46,58.46,0,0,1,2.87,5.34,116.29,116.29,0,0,1,4.93,11.17,69.65,69.65,0,0,1,4.27,15.28,106.61,106.61,0,0,1,.66,11c0,1.18.18,5.64.08,11.74-.08,5.42-.13,8.13-.49,11.75a99.84,99.84,0,0,1-1.73,10.84,96.51,96.51,0,0,1-3,11.5,116.67,116.67,0,0,1-10.84,23.08c-2.7,4.27-4.44,7-7.64,10.19a80.92,80.92,0,0,1-8.13,6.65c-3.32,2.54-5,3.88-7.64,5.59a88.22,88.22,0,0,1-9.53,5.42A96.57,96.57,0,0,1,371,325.12a109.29,109.29,0,0,1-11.74,3.61c-3.79.92-7,1.44-13.39,2.46-2.55.41-5.08.92-7.64,1.15-1.55.14-3.05.63-4.6.74-.83.06-1.65.08-1.81.5s.71,1.26,1.23,1.72c1.58,1.4,2.82,3.16,4.27,4.68,1.69,1.77,2.5,3.59,4.11,7.23a47.59,47.59,0,0,1,2.71,8.13A75.12,75.12,0,0,1,346,366.68c.38,4,.45,7.17.49,10.84.09,8.55-.08,14.33-.16,19.06-.13,7.63.08,7.77.08,19.55,0,7,0,12.33-.08,15,0,.32-.07,1.62-.08,3.37,0,.88,0,1.53,0,1.72,0,7.42,0,14.84,0,22.27v21H240.67Z"/></g></g></svg>