<?xml version="1.0" encoding="utf-8"?>
<!-- Generator: Adobe Illustrator 22.0.1, SVG Export Plug-In . SVG Version: 6.00 Build 0)  -->
<svg version="1.1" id="Layer_1" xmlns="http://www.w3.org/2000/svg" xmlns:xlink="http://www.w3.org/1999/xlink" x="0px" y="0px"
	 viewBox="0 0 1012 338" style="enable-background:new 0 0 1012 338;" xml:space="preserve">
<style type="text/css">
	.st0{fill:none;}
	.st1{fill:#576CB3;}
	.st2{font-family:'JosefinSans-Light';}
	.st3{font-size:130px;}
	.st4{letter-spacing:39;}
	.st5{fill:#263A7B;}
	.st6{font-family:'JosefinSans-Regular';}
	.st7{letter-spacing:26;}
</style>
<rect x="434.8" y="59.8" class="st0" width="562.3" height="101.9"/>
<text transform="matrix(1 0 0 1 434.7924 158.6356)" class="st1 st2 st3 st4">CRAIG</text>
<rect x="439.5" y="179.2" class="st0" width="557.6" height="101.9"/>
<text transform="matrix(1 0 0 1 439.5151 279.9626)" class="st5 st6 st3 st7">ALLEN</text>
<g id="XMLID_7_">
	<g>
		<path class="st1" d="M340.6,182c0.2-3.5,0.4-7,0.4-10.5c0-3.8-0.1-7.5-0.4-11.2h21.5h0c0.2,3.5,0.3,7,0.3,10.6
			c0,3.7-0.1,7.4-0.3,11.1H340.6z"/>
		<path class="st1" d="M340.6,182h21.5c-4.6,73.7-55.2,134.9-123.4,155.4l3.4-24.2C296.7,293.1,336.5,242.4,340.6,182z"/>
		<path class="st1" d="M245.4,6.6C310.4,29,357.8,88.8,362.1,160.3h0h-21.5c-4.5-61.5-46-112.8-102.3-131.8L245.4,6.6z"/>
		<path class="st1" d="M241.6,5.3l1.5,0.5l0.6,0.2c0.6,0.2,1.1,0.4,1.7,0.6l-7.1,21.9c-2.2-0.7-4.4-1.4-6.6-2.1l-0.2-0.1l7.2-22
			L241.6,5.3z"/>
		<path class="st1" d="M238.3,28.5l-42.9,131.8H188l43.6-133.9l0.2,0.1C233.9,27.1,236.1,27.7,238.3,28.5z"/>
		<path class="st1" d="M195.4,160.3h145.1c0.3,3.7,0.4,7.4,0.4,11.2c0,3.5-0.1,7-0.4,10.5H188.4L195.4,160.3z"/>
		<polygon class="st1" points="195.4,160.3 188.4,182 180.9,182 188,160.3 		"/>
		<path class="st1" d="M154.9,0.4l-7.8,25.7l0,0c-63.1,18-109.3,76.2-109.3,145c0,65.6,41.9,121.4,100.3,142.2l-7,21.6
			c-67.7-23.7-116.2-88.2-116.2-164C14.9,86.5,75.1,16.1,154.9,0.4L154.9,0.4z"/>
		<path class="st1" d="M138.2,313.1L180.9,182h7.5l-43.5,133.5l-0.2-0.1c-2.2-0.7-4.4-1.4-6.6-2.2L138.2,313.1z"/>
		<path class="st1" d="M144.9,315.5l-7,21.6c-2.3-0.7-4.5-1.4-6.7-2.2l7-21.6c2.2,0.8,4.3,1.5,6.6,2.2L144.9,315.5z"/>
		<path class="st1" d="M138.2,313.3l-7,21.6L138.2,313.3C138.2,313.3,138.2,313.3,138.2,313.3z"/>
	</g>
	<g>
	</g>
</g>
</svg>
