<svg xmlns="http://www.w3.org/2000/svg" viewBox="0 0 592.44 592.44"><defs><style>.cls-1{fill:#566eb5;}.cls-2{fill:#fff;}.cls-3{fill:none;stroke:#566eb5;stroke-miterlimit:10;stroke-width:10px;}</style></defs><title>Asset 3</title><g id="Layer_2" data-name="Layer 2"><g id="Layer_1-2" data-name="Layer 1"><rect class="cls-1" width="592.44" height="592.44" rx="12" ry="12"/><path class="cls-2" d="M484.61,212.39V472.61a12,12,0,0,1-12,12H119.83a12,12,0,0,1-12-12V212.39h119a108.84,108.84,0,1,0,138.82,0Z"/><path class="cls-2" d="M153.59,107.84h319a12,12,0,0,1,12,12v92.55h-119a108.82,108.82,0,0,0-138.82,0h-119V119.84a12,12,0,0,1,12-12h33.76Zm316.66,57.63V133.91a12,12,0,0,0-12-12H426.7a12,12,0,0,0-12,12v31.56a12,12,0,0,0,12,12h31.55A12,12,0,0,0,470.25,165.47Z"/><rect class="cls-2" x="414.7" y="121.91" width="55.55" height="55.56" rx="12" ry="12"/><path class="cls-1" d="M365.63,212.39a108.84,108.84,0,1,1-138.82,0h41.52a88.34,88.34,0,1,0,55.78,0Z"/><path class="cls-1" d="M365.63,212.39H324.11a88.68,88.68,0,0,0-55.78,0H226.81a108.82,108.82,0,0,1,138.82,0Z"/><path class="cls-2" d="M324.11,212.39a88.33,88.33,0,1,1-55.78,0Z"/><path class="cls-2" d="M324.11,212.39H268.33a88.68,88.68,0,0,1,55.78,0Z"/><path class="cls-3" d="M484.61,212.39V472.61a12,12,0,0,1-12,12H119.83a12,12,0,0,1-12-12V119.84a12,12,0,0,1,12-12H472.61a12,12,0,0,1,12,12Z"/><polyline class="cls-3" points="107.83 212.39 226.81 212.39 268.33 212.39 324.11 212.39 365.63 212.39 484.61 212.39"/><path class="cls-3" d="M365.63,212.39a108.82,108.82,0,1,1-69.41-25A108.6,108.6,0,0,1,365.63,212.39Z"/><path class="cls-3" d="M324.11,212.39a88.68,88.68,0,1,1-27.89-4.5A88.37,88.37,0,0,1,324.11,212.39Z"/><rect class="cls-3" x="414.7" y="121.91" width="55.55" height="55.56" rx="12" ry="12"/><line class="cls-3" x1="134.55" y1="107.84" x2="134.55" y2="177.47"/><line class="cls-3" x1="153.59" y1="107.84" x2="153.59" y2="177.47"/><polyline class="cls-3" points="172.33 107.83 172.33 107.84 172.33 177.46"/></g></g></svg>