<svg xmlns="http://www.w3.org/2000/svg" viewBox="0 0 592.44 592.44"><defs><style>.cls-1{fill:#566eb5;}.cls-2{fill:#fff;}</style></defs><title>Asset 2</title><g id="Layer_2" data-name="Layer 2"><g id="Layer_1-2" data-name="Layer 1"><rect class="cls-1" width="592.44" height="592.44" rx="12" ry="12"/><path class="cls-2" d="M312.83,112.55V195.3H395.7v66.53H312.83c.15,91.33.14,132,0,134a10.3,10.3,0,0,0,0,1.18,10.92,10.92,0,0,0,1.88,5,27.71,27.71,0,0,0,3.21,4.48,30,30,0,0,0,4.39,4.05,40.22,40.22,0,0,0,5.24,3.47,41.38,41.38,0,0,0,4.14,2,43.86,43.86,0,0,0,5.66,1.94,47.27,47.27,0,0,0,7.61,1.35,73.66,73.66,0,0,0,28.48-1.69A93,93,0,0,0,392,411.18c3-1.45,5.13-2.71,8.28-4.56,5.07-3,9.13-5.74,12-7.78,0,35.49,0,58.17,0,58.29a.21.21,0,0,1,0,.12.24.24,0,0,1-.1.13,8.92,8.92,0,0,1-1.27.82,13.82,13.82,0,0,0-2,1.07c-.74.4-.64.38-2.08,1.22-.49.29-1.37.8-2.47,1.41-.49.27-1.28.7-2.35,1.25-.38.19-1.19.61-2.26,1.12s-1.23.55-2.42,1.12c-1.67.78-1.56.79-2.43,1.17-1.24.54-1.31.47-3,1.14-1.47.59-1.44.66-2.86,1.23-.82.32-1.47.55-2.79,1l-2.66.91-2.57.89c-1.6.53-1.73.54-3.65,1.17s-2,.68-2.84.94c-1.09.32-1.55.4-3.49.86-2.77.65-2.67.68-4.37,1.07-1.36.3-2.35.48-4.32.85-1.67.32-3.47.65-5.79,1s-4.27.62-6.58.91c-3.81.48-5.71.72-7.87.89-3.69.28-6.4.25-8.54.23-15-.12-15.24.54-23,0-1.56-.11-6.52-.47-12.95-1.51A118.1,118.1,0,0,1,281,474.45a79.26,79.26,0,0,1-11.18-4.08,76,76,0,0,1-16-10.11c-4.36-3.43-7.84-6.2-11.44-10.91a62.29,62.29,0,0,1-5.24-8.34,88.36,88.36,0,0,1-6.12-13.4c-.36-1.05-.64-1.94-.83-2.56V261.73H180.15V212.06c0-.11-.06-.21,0-.29a.36.36,0,0,1,.16-.1,1.05,1.05,0,0,1,.25-.08,5.42,5.42,0,0,1,1.23-.09,49.18,49.18,0,0,0,9.75-.14,29.6,29.6,0,0,0,3-.63c1.7-.41,2.93-.81,4.31-1.26,2.59-.84,4.58-1.6,5.44-1.94,1.56-.62,3.16-1.25,5.25-2.26a43.88,43.88,0,0,0,5.09-2.79c1.2-.77,2.23-1.56,4.29-3.14,1.58-1.21,2.37-1.81,3.44-2.73.33-.29.95-.83,3.77-3.53,1.78-1.71,2.67-2.56,3.33-3.22a51.41,51.41,0,0,0,4.08-4.4,40.51,40.51,0,0,0,2.91-4.24c1-1.55,1.57-2.71,2.78-5,1.31-2.53,2-3.82,2.76-5.69s1.19-3.13,1.46-3.93c.18-.54.88-2.66,1.59-5.64a51.15,51.15,0,0,0,1.17-5.89,42.82,42.82,0,0,0,.34-6.37V112.55Z"/></g></g></svg>