<svg xmlns="http://www.w3.org/2000/svg" viewBox="0 0 592.44 592.44"><defs><style>.cls-1{fill:#0c1a38;}.cls-2{fill:#fff;stroke:#0c1a38;stroke-miterlimit:10;stroke-width:10px;}</style></defs><title>Asset 3</title><g id="Layer_2" data-name="Layer 2"><g id="Layer_2-2" data-name="Layer 2"><rect class="cls-1" width="592.44" height="592.44" rx="12" ry="12"/><path class="cls-2" d="M120.42,151.34c2.33,2.51,17.08,17.79,42.82,33.22,16.64,10,32.58,18,66.44,28.05,15.28,4.53,30.8,10.64,51.68,11.07.31,0,3.41-.16,7.59-.05,1.7,0,2.92.78,3.54.14s-.06-2.44-.71-4.53c-.55-1.77-.79-4.29-1.27-9.34a75.73,75.73,0,0,1-.28-9.62,100.21,100.21,0,0,1,4.1-25.19,98.52,98.52,0,0,1,7.22-18.39,95.24,95.24,0,0,1,28-32,97.4,97.4,0,0,1,43-17.69,95.9,95.9,0,0,1,33.82,1.27,99,99,0,0,1,36.51,16.42,133.61,133.61,0,0,1,11.85,10.08l.59.62c.52.55.6.77.89.9a1.38,1.38,0,0,0,.93,0c3-.84,6.12-1.19,9.07-2.17,3.29-1.11,2.45-.52,7.92-2.18,3.08-.92,5.37-1.72,6.55-2.13A229.55,229.55,0,0,0,508,118c3.07-1.61,5.35-2.77,6.32-3.46.61-.43,1.3-.73,1.93-1.13.37-.25.65-.44.79-.35s-.11,1-.3,1.48c-1.12,2.8-2.47,6-2.67,6.42-.5,1.19-.37,1-.94,2.32-.23.56-.91,2.14-2,4.25-.68,1.36-2,3.83-3.8,6.82-.75,1.21-2.29,3.65-4.4,6.51a97.36,97.36,0,0,1-13.53,14.77s-3.38,3-8.49,6.72a25.87,25.87,0,0,1-5.1,3.24c-.19.07-.88.34-.85.44s1.29-.08,1.69-.15c4.26-.75-1.33.53,8.14-1.24,5.29-1,7.93-1.49,10.87-2.16,1.62-.36,4.3-1,7.82-1.94,4-1.08,7.13-2.1,9.13-2.77,2.85-.95,1.92-.73,9.72-3.59,3.53-1.29,5.5-2,6.71-2.79.14-.09.86-.58.95-.47s-.25.47-.52.8c-.58.72-1.06,1.52-1.63,2.25-1.07,1.38-1.86,2.57-4,5.39-2.33,3.11-4.28,5.73-6.92,8.89s-4.8,5.47-7.2,8-4,4.28-6.44,6.59c-1,1-1,.89-6.77,6-4.45,4-5.26,4.69-7,6.08-.52.42-1.81,1.37-5.47,4.17-.57.43-.68.53-1.07.81a4,4,0,0,1-.66.51.58.58,0,0,0-.33.27.41.41,0,0,0,0,.29,39.7,39.7,0,0,1,.08,4.91c-.08,2.62.15,3.62.17,8.69,0,.79,0,3.84-.13,7.81-.08,1.93-.22,4.16-.51,8.62-.35,5.51-.5,7.13-.58,7.93-.11,1.15-.32,3.24-.66,5.86-.32,2.44-.59,4.16-1.07,7.18-.18,1.16-.56,3.51-1.08,6.52-.45,2.57-.79,4.38-1.24,6.8-1,5.14-1.27,6.5-1.42,7.14s-.46,1.91-1.05,4.23c-.77,3.08-1.16,4.62-1.61,6.31-.93,3.48-1.74,6.24-2.15,7.6-1.11,3.7-2,6.46-2.6,8.11-1.33,3.93-2.42,6.88-3.14,8.83s-1.29,3.39-2.45,6.4c-1.56,4-2.34,6.05-2.91,7.39s-1.53,3.35-3.55,7.62c-1.65,3.5-2.48,5.25-3.12,6.56-1.4,2.85-2.71,5.41-3.88,7.62-2.27,4.31-4.1,7.52-4.6,8.38-.79,1.39-2.64,4.59-5.18,8.65-3.63,5.83-6.57,10.06-7.27,11.06-1.87,2.68-3.34,4.66-5.2,7.18-1.71,2.31-3.51,4.74-5.74,7.58,0,0-3.82,4.87-8.46,10.15a309.49,309.49,0,0,1-39.32,37.71,234.69,234.69,0,0,1-46.17,27.39,270.64,270.64,0,0,1-96.78,24.63,295.66,295.66,0,0,1-46.17-1.16,269.74,269.74,0,0,1-43.3-7,248.53,248.53,0,0,1-39.13-13.3c-21.5-9.5-28.51-16.53-37.46-20.37-.46-.2-2.17-.93-2.08-1.33.22-.9,9.53.62,11.83,1,14.13,2.14,28,.19,39.61-1.45a186.45,186.45,0,0,0,48.51-13.72s15.89-7,28.77-15.77c4.49-3.06,5.94-5,10.84-7.71.83-.45,2.93-1.56,2.77-2s-1.76-.1-3.5,0c-2.21.13-4-.2-7.7-.85a134.74,134.74,0,0,1-20.7-5.05,93.08,93.08,0,0,1-27.93-16.49A101.75,101.75,0,0,1,124.16,357c-5.35-11.08-7.06-14.88-7.46-16-.33-.93-.7-1.84-1-2.78s-.28-1.15-.55-1.52c-.06-.09-.18-.24-.13-.32s.81.14.94.19c1,.38,3.05.6,6.86,1,.75.08,4.43.47,9.43.52a93.6,93.6,0,0,0,10.26-.39,90.64,90.64,0,0,0,9.24-1.36c1.5-.3,3.42-.77,4.21-1a14.29,14.29,0,0,1,1.59-.42c.25,0,.46-.07.46-.11a6.36,6.36,0,0,0-1.6-.28,31.55,31.55,0,0,1-5.65-1.48c-3-.93-4.5-1.4-6.5-2.14-3-1.09-5.4-2.16-7.1-2.94-1.47-.68-3.81-1.82-6.61-3.39-3-1.66-5.14-3.1-5.94-3.63-2.3-1.53-3.91-2.76-5.83-4.22-1.77-1.35-2.87-2.19-4.34-3.45s-2.57-2.36-4-3.75c-1.85-1.82-3.28-3.24-5-5.13a85.57,85.57,0,0,1-5.67-7.23c-1.69-2.32-3-4.12-4.61-6.73a87.51,87.51,0,0,1-4.59-8.5s-1.91-4-3.47-8.37a126.86,126.86,0,0,1-5.82-28.37,30.47,30.47,0,0,1-.13-3.43c0-.11,0-.57,0-1.2s-.13-.91,0-1,1.1.41,1.33.58c1.28.93,2.83,1.4,4.17,2.21,1.77,1.08,3.9,1.84,8.17,3.38a100.7,100.7,0,0,0,10.2,3.15,107.23,107.23,0,0,0,13.09,2.26c1.14.11,3.36.28,4,.32l1.29.07c.89,0,1.23.13,1.27,0s-.41-.36-1.13-.83c-.09-.05-.59-.41-1.59-1.13-.69-.5-1.21-.9-2.24-1.7s-1.64-1.27-2.42-1.91c-1.29-1-2.18-1.85-3.49-3-1.46-1.33-2.38-2.16-3.49-3.26-2.19-2.15-3.71-3.92-5.69-6.22-1.46-1.7-2.28-2.66-3.31-4a77.35,77.35,0,0,1-5.64-8.37,90.33,90.33,0,0,1-5-9.36,87.92,87.92,0,0,1-4.88-13.61,91.34,91.34,0,0,1-3-14.33,90.33,90.33,0,0,1-.67-10.65,91.75,91.75,0,0,1,3.22-26.65A94,94,0,0,1,90,133.31s2-4.58,4.34-8.64l.44-.77.12-.2c.06-.12.07-.14.09-.15s.39.39.39.39c2.28,3.84,5.86,6.74,8.67,10.21,2.47,3,1.93,1.88,10.35,10.76C117.7,148.36,120,150.86,120.42,151.34Z"/></g></g></svg>